<svg xmlns="http://www.w3.org/2000/svg" width="440" height="650" viewBox="0 0 440 650"><defs><linearGradient id="b" x2="1" y2="1"><stop stop-color="#d1c4b5"/><stop offset="1" stop-color="#eeebe4"/></linearGradient><filter id="s"><feDropShadow dx="5" dy="10" stdDeviation="12" flood-opacity=".12"/></filter></defs><rect width="440" height="650" fill="url(#b)"/><path d="M0 560H440M330 0V650" stroke="#fff" opacity=".3"/><ellipse cx="224" cy="608" rx="95" ry="10" fill="#766d61" opacity=".12"/><g transform="translate(0 10)" filter="url(#s)"><path d="M180 303 L253 303 L264 548 L228 548 L218 386 L199 548 L161 548Z" fill="#697f8e"/><path d="M178 542L201 542L206 574L152 574Q153 555 178 542M230 542L259 542L280 574L229 574Z" fill="#383b36"/><path d="M174 165L209 150L241 154L272 176L294 359L271 365L250 237L260 363L162 363L174 234L144 347L125 339Z" fill="#a58f77"/><path d="M209 152L220 280L243 155L250 313L189 313Z" fill="#f2efe7"/><path d="M207 155L181 182L201 215L190 248M242 158L266 182L244 215L252 248" fill="none" stroke="#4a453b" stroke-opacity=".22" stroke-width="2"/><rect x="207" y="125" width="30" height="39" rx="12" fill="#b68c70"/><ellipse cx="221" cy="102" rx="34" ry="43" fill="#c6a086"/><path d="M187 107Q173 48 221 48Q266 48 259 120L247 90Q216 102 198 76Z" fill="#514438"/><path d="M267 276Q313 262 312 318L304 371L264 371Z" fill="#76583f"/><path d="M276 286Q292 249 302 287" fill="none" stroke="#76583f" stroke-width="5"/></g><text x="24" y="35" font-family="Georgia" font-size="12" fill="#504c44" letter-spacing="3">衣橱 / 穿搭灵感 05</text></svg>